# xmcd
#
# Track frame offsets: 
#        150
#        10713
#        19613
#        27890
#        40753
#        55419
#        65060
#        78309
#        90798
#        100185
#        108970
#        121114
#
# Disc length: 1739 seconds
#
# Revision: 0
# Processed by: cddbd v1.5.2PL0 Copyright (c) Steve Scherf et al.
# Submitted via: ExactAudioCopyFreeDBPlugin 1.0
#
DISCID=8106c90c
DTITLE=The Statesmen Quartet - Camp-Meeting Hymns
DYEAR=1962
DGENRE=Southern Gospel
TTITLE0=I Shall Not Be Moved
TTITLE1=Standing On The Promises
TTITLE2=Old Camp-Meeting Days
TTITLE3=Closer To Thee
TTITLE4=I Cannot Fail The Lord
TTITLE5=If I Could Hear My Mother Pray Again
TTITLE6=You Can't Stop God From Blessing Me
TTITLE7=Teach Me, Lord, To Wait
TTITLE8=There Is Power In The Blood
TTITLE9=I Like The Old Time Way (Of Praising His Great Name)
TTITLE10=Rock Of Ages
TTITLE11=Let The Lower Lights Be Burning
EXTD=
EXTT0=
EXTT1=
EXTT2=
EXTT3=
EXTT4=
EXTT5=
EXTT6=
EXTT7=
EXTT8=
EXTT9=
EXTT10=
EXTT11=
PLAYORDER=
